<?xml version="1.0" encoding="UTF-8"?>
<svg version="1.1" xmlns="http://www.w3.org/2000/svg" width="1875" height="1529">
<path d="M0 0 C2.04215727 -0.00043636 4.08431448 -0.00131246 6.1264714 -0.00258917 C11.72486097 -0.00482139 17.32323134 -0.00083024 22.92161846 0.0041889 C28.96376227 0.00851147 35.00590501 0.00704569 41.04804993 0.00628662 C51.51208871 0.00576253 61.97612197 0.00886234 72.44015884 0.01452446 C83.41202957 0.02044612 94.3838978 0.02429134 105.35577011 0.02537727 C106.37994246 0.02548038 106.37994246 0.02548038 107.42480516 0.02558558 C110.89245771 0.02592392 114.36011027 0.0262253 117.82776283 0.02651245 C142.37450593 0.02861158 166.92124579 0.03534537 191.46798706 0.04481506 C215.31141136 0.0540028 239.15483478 0.06108479 262.9982605 0.06532288 C263.7335148 0.0654544 264.4687691 0.06558593 265.22630384 0.06572144 C272.6101838 0.06703999 279.99406376 0.0683158 287.37794373 0.0695603 C302.41909714 0.07209636 317.46025049 0.07491761 332.50140381 0.07791138 C333.19293695 0.07804867 333.88447009 0.07818596 334.59695878 0.07832741 C380.75839667 0.08752451 426.91983265 0.10339013 473.08126831 0.12025452 C472.30235569 4.19748128 471.52140397 8.27431506 470.74012756 12.35108948 C470.52294807 13.48805141 470.30576858 14.62501335 470.08200788 15.79642868 C468.22954444 25.45424035 466.25873589 35.08468636 464.21464539 44.70367432 C463.98835764 45.76994741 463.76206989 46.83622051 463.52892494 47.93480492 C463.17778413 49.58894622 463.17778413 49.58894622 462.81954956 51.27650452 C462.3146572 53.66357524 461.80995846 56.05068693 461.30543518 58.43783569 C460.09201964 64.1761281 458.8763229 69.91393344 457.65941352 75.65148586 C456.66637294 80.33378082 455.67439648 85.01630015 454.68307495 89.69895935 C446.11875949 130.15264537 437.52389716 170.59985583 428.90972519 211.04295349 C428.09447048 214.8707672 427.27946137 218.69863313 426.46447754 222.52650452 C421.35933797 246.50067686 416.2430358 270.47253667 411.05917358 294.42983055 C410.61940904 296.46350584 410.18050997 298.49736849 409.74252319 300.53142738 C409.14586033 303.30079725 408.54573619 306.069393 407.94454956 308.83778381 C407.76912125 309.65502867 407.59369293 310.47227352 407.41294861 311.31428337 C406.1957392 316.89131274 406.1957392 316.89131274 405.08126831 319.12025452 C335.78126831 319.12025452 266.48126831 319.12025452 195.08126831 319.12025452 C195.08126831 286.78025452 195.08126831 254.44025452 195.08126831 221.12025452 C170.74240758 221.06192424 170.74240758 221.06192424 146.40353394 221.02259827 C136.46902384 221.01076073 126.53454783 220.9968935 116.60006714 220.96937561 C109.36276997 220.94933844 102.12550064 220.93651377 94.8881765 220.93207753 C91.06190007 220.9294875 87.23570318 220.92347113 83.40945244 220.9087944 C79.79550057 220.89504657 76.18165972 220.89106593 72.56768417 220.89403915 C70.63467224 220.8932412 68.70167192 220.88257081 66.76869202 220.87141418 C42.30314692 220.92792951 19.47737377 227.45264219 1.08126831 244.12025452 C0.25111206 244.85759827 -0.57904419 245.59494202 -1.43435669 246.35462952 C-16.06780478 260.09032006 -22.28726873 276.83741305 -26.60623169 296.12025452 C-26.90078247 297.38353577 -27.19533325 298.64681702 -27.49880981 299.94837952 C-30.15008064 311.53056039 -32.27651468 322.89832797 -32.23123169 334.80775452 C-32.24734497 335.66691467 -32.26345825 336.52607483 -32.28005981 337.41127014 C-32.28956931 350.04938706 -27.16751121 361.12894899 -18.73513794 370.46400452 C-5.2762411 382.73620292 10.85645804 385.41532801 28.37399292 385.42323303 C29.78977433 385.43091138 31.20555124 385.43946095 32.62132263 385.44880676 C35.65498781 385.46698643 38.6885926 385.4790888 41.72230339 385.48634529 C46.54869425 385.49794576 51.37495414 385.52346088 56.20127869 385.55065918 C63.86464811 385.59222863 71.52802431 385.62465715 79.19145256 385.65313333 C92.83792105 385.7039771 106.4843279 385.76732425 120.13070494 385.83847374 C124.89771731 385.86293385 129.66471564 385.88243549 134.4317649 385.89799327 C148.61956026 385.94648032 162.79732166 386.05510272 176.97799683 386.55751038 C178.02964744 386.59371522 179.08129805 386.62992006 180.16481686 386.66722202 C235.72504245 388.88615597 286.86426247 409.75166259 327.08126831 448.12025452 C327.94494019 448.93107483 328.80861206 449.74189514 329.69845581 450.57728577 C339.45892896 459.98808464 348.37099131 471.31166651 355.08126831 483.12025452 C355.08126831 484.11025452 355.08126831 485.10025452 355.08126831 486.12025452 C354.27834351 486.34575989 353.4754187 486.57126526 352.64816284 486.80360413 C320.97648323 495.74039471 290.18251804 505.91047647 260.90792847 521.1700592 C259.08997906 522.11572334 257.2639696 523.04424306 255.43673706 523.97181702 C238.95128998 532.43999197 223.63970176 542.68001619 209.08126831 554.12025452 C208.09771362 554.88982483 207.11415894 555.65939514 206.10079956 556.45228577 C198.77032121 562.32301518 191.8986825 568.66908484 185.08126831 575.12025452 C184.40064331 575.75834045 183.72001831 576.39642639 183.01876831 577.05384827 C153.57060049 605.47951026 131.18583231 649.94168637 129.87814331 691.08119202 C129.4778761 718.7557178 135.31588566 744.91643232 154.08126831 766.12025452 C154.837948 766.99681702 155.59462769 767.87337952 156.37423706 768.77650452 C160.34721463 773.3018391 164.30581713 777.44683053 169.08126831 781.12025452 C167.56846342 785.40490836 164.38589693 787.2679377 160.76876831 789.68275452 C153.46276008 794.72904581 146.75365028 800.27108851 140.08126831 806.12025452 C139.25369019 806.8356842 138.42611206 807.55111389 137.57345581 808.28822327 C124.20146159 820.04939971 112.36725307 832.56978299 102.08126831 847.12025452 C101.66683472 847.70597229 101.25240112 848.29169006 100.82540894 848.89515686 C75.31707031 885.52333658 63.71399868 928.49105329 71.59738159 972.68421936 C72.57890845 977.62552865 73.88823064 982.45399185 75.31173706 987.28431702 C76.08126831 990.12025452 76.08126831 990.12025452 76.08126831 993.12025452 C-105.08873169 993.12025452 -286.25873169 993.12025452 -472.91873169 993.12025452 C-471.79373099 982.99524821 -471.79373099 982.99524821 -470.7855072 978.25422668 C-470.55830112 977.17539813 -470.33109505 976.09656958 -470.09700394 974.98504925 C-469.72415834 973.24744949 -469.72415834 973.24744949 -469.34378052 971.4747467 C-469.07910854 970.22431233 -468.81443657 968.97387796 -468.54174423 967.68555164 C-467.81202597 964.2385941 -467.07691661 960.79280594 -466.34087491 957.34719396 C-465.54822821 953.63191466 -464.76064071 949.9155627 -463.97242737 946.19934082 C-462.4331285 938.94579263 -460.88924455 931.69322779 -459.34383529 924.4409793 C-457.54622968 916.00424859 -455.75342884 907.56649913 -453.96090388 899.12868774 C-450.79282411 884.21646817 -447.62087804 869.30507388 -444.44656372 854.3941803 C-440.57454539 836.20581047 -436.70805257 818.01627045 -432.84355015 799.82630241 C-429.78308741 785.42108056 -426.72088715 771.01622798 -423.65846968 756.61142159 C-423.16865656 754.30740111 -422.67888417 752.00337197 -422.18912125 749.69934082 C-420.47425246 741.63214989 -418.75880957 733.56508164 -417.04185218 725.49833494 C-416.3352873 722.17868565 -415.62903849 718.8589701 -414.92333794 715.53913689 C-414.15597884 711.92953545 -413.38758029 708.32015673 -412.618927 704.71083069 C-412.29501842 703.18555567 -412.29501842 703.18555567 -411.96456623 701.62946701 C-410.00674902 692.44595001 -407.95597293 683.28784011 -405.91873169 674.12025452 C-336.61873169 674.12025452 -267.31873169 674.12025452 -195.91873169 674.12025452 C-195.91873169 706.79025452 -195.91873169 739.46025452 -195.91873169 773.12025452 C-163.65497771 773.05869587 -163.65497771 773.05869587 -131.39138794 772.96009827 C-118.22423483 772.91164328 -105.05715793 772.86716628 -91.8899231 772.84925842 C-82.29799689 772.83619425 -72.70622667 772.80910885 -63.11438835 772.76564145 C-58.04218732 772.7431333 -52.97017791 772.72733739 -47.89792252 772.72837067 C-43.10928313 772.72912363 -38.3210656 772.71092122 -33.53253555 772.67908669 C-31.78887867 772.67067089 -30.04517401 772.66878004 -28.30150604 772.67445183 C-0.12615793 772.75378752 23.91016993 763.88872705 44.29611206 744.05384827 C58.29580725 729.73674329 63.76392281 711.66964778 67.45626831 692.55775452 C67.79971848 690.85886218 68.14476503 689.16029177 68.49142456 687.46205139 C72.58800065 667.19550364 75.45380506 648.54434951 63.56954956 630.26087952 C55.16896687 618.17815166 43.23424377 611.72796984 28.85827637 609.07202148 C21.24254093 607.83898217 13.67446957 607.83475033 5.9850769 607.84901428 C4.39989457 607.84461663 2.81471453 607.83931074 1.22953796 607.83317566 C-2.16369661 607.82174708 -5.55686934 607.81622146 -8.95012283 607.81529427 C-14.34347309 607.81333443 -19.7366981 607.79517288 -25.13000488 607.77453613 C-38.53502952 607.72558803 -51.94008818 607.69462364 -65.34518433 607.67323303 C-75.75352867 607.65659323 -86.16176481 607.63343576 -96.57003725 607.59021229 C-101.03979592 607.57222782 -105.50940812 607.55979065 -109.97920609 607.56151009 C-178.32081723 607.58004618 -241.14910005 591.33366477 -290.98123169 542.43275452 C-326.12106853 507.21760906 -343.86719881 456.48557348 -344.16873169 407.24525452 C-344.04115273 390.84852289 -342.06682339 375.17628124 -338.89138794 359.09681702 C-338.74075394 358.32820343 -338.59011993 357.55958984 -338.43492126 356.76768494 C-334.8244371 338.35152961 -330.97735759 319.98487671 -327.08474731 301.62660217 C-326.30366704 297.94215783 -325.52642969 294.2569364 -324.75271606 290.57093811 C-312.16945822 230.63287447 -312.16945822 230.63287447 -305.10623169 211.68275452 C-304.68446655 210.5321051 -304.26270142 209.38145569 -303.82815552 208.19593811 C-289.9684392 171.14582247 -267.80490509 138.87948499 -240.91873169 110.12025452 C-239.96724237 109.06891958 -239.01805933 108.01549326 -238.07107544 106.96009827 C-233.63955723 102.0304519 -229.20499993 97.26422432 -224.11013794 93.00306702 C-221.86917357 91.07767517 -219.73379309 89.05881495 -217.5942688 87.02210999 C-209.52784624 79.38666172 -200.84772155 72.71029292 -191.91873169 66.12025452 C-191.31416138 65.66908264 -190.70959106 65.21791077 -190.08670044 64.75306702 C-144.56445687 30.84259212 -88.64041084 8.03444544 -32.18330085 1.388843 C-30.79129268 1.22374433 -29.40039204 1.04846045 -28.0118829 0.85614115 C-18.71812833 -0.28586859 -9.34598728 -0.01483433 0 0 Z " fill="#F56423" transform="translate(472.9187316894531,-0.1202545166015625)"/>
<path d="M0 0 C1.2906694 0.00037972 2.5813388 0.00075944 3.9111194 0.00115067 C4.62983206 -0.00000318 5.34854472 -0.00115702 6.08903655 -0.00234583 C8.52790929 -0.00501936 10.96671767 -0.00048433 13.40558714 0.00394398 C15.15949051 0.00350843 16.91339381 0.00263382 18.66729677 0.00135481 C23.51071451 -0.0008933 28.35411037 0.00313543 33.19752532 0.00813287 C38.41159872 0.01243268 43.62567079 0.01099129 48.83974546 0.0102306 C57.88139542 0.00970507 66.92303819 0.01285494 75.96468633 0.01846844 C89.03755394 0.02657946 102.11041806 0.02919825 115.18328791 0.03045643 C136.3907667 0.03264758 157.59824166 0.03930936 178.80571836 0.04875904 C199.412489 0.05793154 220.0192586 0.06501317 240.62603086 0.06926686 C241.89524126 0.06952958 243.16445166 0.0697923 244.47212297 0.07006299 C250.83908262 0.07136798 257.20604227 0.0726317 263.57300192 0.07387489 C316.43223362 0.08424946 369.29146116 0.10186947 422.15068907 0.1241985 C422.0013416 1.87005324 421.84929916 3.61567757 421.69613737 5.36120182 C421.56957313 6.81937994 421.56957313 6.81937994 421.44045204 8.30701619 C421.05430301 12.06129925 420.36368654 15.69673066 419.56279844 19.38103443 C419.404296 20.13510862 419.24579355 20.8891828 419.082488 21.66610771 C418.55915015 24.14824554 418.02683608 26.62836444 417.49443907 29.1085735 C417.11565382 30.89635687 416.73742325 32.68425784 416.35970396 34.47226673 C415.34265722 39.27788301 414.31752276 44.08173625 413.28991789 48.88510472 C412.21804339 53.89729018 411.15029743 58.91035569 410.08184141 63.92327076 C408.76277613 70.11067063 407.4427139 76.29785272 406.11928648 82.48432118 C403.5294884 94.59870192 400.97709504 106.72012735 398.46410459 118.85066944 C397.12694739 125.30430927 395.77569948 131.75496939 394.42014021 138.20476681 C393.50619487 142.55719695 392.59968263 146.91090052 391.71001524 151.26836354 C390.87909655 155.33702596 390.02899255 159.40119104 389.16377729 163.46269375 C388.85153589 164.94566011 388.54650942 166.43016676 388.24926466 167.91621166 C387.8444069 169.93536572 387.41428738 171.94747544 386.97734922 173.95989186 C386.62696089 175.64785122 386.62696089 175.64785122 386.269494 177.36991078 C385.15068907 180.1241985 385.15068907 180.1241985 383.0222711 181.92032582 C379.52454761 183.3867 376.10772801 184.03044088 372.37871641 184.55046803 C371.61227308 184.66634266 370.84582975 184.7822173 370.05616087 184.90160328 C367.53439184 185.28033783 365.01064925 185.64362776 362.48662657 186.007011 C360.72960582 186.26833535 358.97274105 186.53071038 357.2160272 186.79408985 C352.5989978 187.48379175 347.98019683 188.1607805 343.36083311 188.83464772 C335.95965389 189.91683775 328.56151895 191.01970933 321.16300672 192.11995274 C318.57818948 192.50270742 315.99274108 192.88092339 313.40712827 193.25826222 C311.82603585 193.49103176 310.24495027 193.72384783 308.66387266 193.95671803 C307.94380537 194.06061848 307.22373808 194.16451893 306.48185056 194.27156788 C303.58495472 194.70070171 300.93665588 195.19554289 298.15068907 196.1241985 C297.20559455 198.0492427 297.20559455 198.0492427 296.62485594 200.44982105 C296.25252867 201.81529701 296.25252867 201.81529701 295.87267965 203.20835835 C294.66394099 208.08998532 293.5870963 212.99058573 292.56401914 217.91423756 C292.32165871 219.06311734 292.07929828 220.21199713 291.8295936 221.39569145 C291.16310693 224.55893614 290.50040662 227.72294634 289.83924764 230.88730794 C289.12277627 234.31129719 288.40111965 237.73419351 287.67998594 241.15720326 C286.42895733 247.09839404 285.18070807 253.04016284 283.93428892 258.98232228 C280.89959413 273.44859776 277.85046939 287.91183682 274.80209249 302.37523419 C274.09319072 305.73872737 273.384483 309.10226136 272.67593664 312.46582943 C265.16708962 348.10979694 257.57790449 383.7364317 249.96779722 419.35889775 C248.28276065 427.24660999 246.5986134 435.13451216 244.91436094 443.02239186 C244.57825846 444.59644696 244.24215565 446.170502 243.90605253 447.74455696 C243.40383144 450.0965861 242.9016126 452.44861571 242.39940113 454.8006469 C241.56840967 458.69246122 240.73738553 462.58426856 239.90628904 466.47606045 C233.07621659 498.45960155 226.2638133 530.44688348 219.46318907 562.4366985 C219.19452024 563.70043293 218.92585142 564.96416737 218.64904112 566.26619679 C204.77187963 631.54278824 190.95949483 696.83311885 177.15068907 762.1241985 C189.18886197 764.45257317 201.22726139 766.71172115 213.32647032 768.7023235 C214.62851911 768.91862416 215.93056791 769.13492481 217.27207273 769.35778004 C220.64980984 769.91887283 224.02802343 770.47703876 227.40636533 771.03447682 C230.88720334 771.60940024 234.36755921 772.18722831 237.84795469 772.7648235 C244.61503086 773.88765688 251.38280385 775.00625238 258.15068907 776.1241985 C254.64352329 793.88286318 250.97443143 811.60360177 247.22100157 829.3116985 C246.66172005 831.95454491 246.10285254 834.59747882 245.54396909 837.24040943 C244.23256912 843.44079234 242.91977094 849.64087829 241.60643941 855.84085232 C240.57450211 860.7126752 239.5432557 865.58464387 238.51250547 870.45671803 C238.36768334 871.14125176 238.22286122 871.82578549 238.07365054 872.53106266 C237.49252721 875.27794014 236.91142618 878.02482233 236.3303284 880.77170521 C234.78256113 888.0878772 233.23402896 895.40388525 231.6832208 902.71941334 C229.38048258 913.58267282 227.07957896 924.44620858 224.8059625 935.31560475 C224.3163492 937.64976076 223.82645238 939.98385702 223.33641523 942.31792408 C222.90786522 944.36509804 222.48329267 946.41306881 222.05892271 948.46111256 C221.81447416 949.62481373 221.57002561 950.7885149 221.31816953 951.98747975 C221.11368192 952.9701482 220.90919431 953.95281666 220.69851011 954.96526295 C220.15068907 957.1241985 220.15068907 957.1241985 219.15068907 958.1241985 C217.33665405 958.22170158 215.51877122 958.2479125 213.70211786 958.24724633 C212.51228892 958.24923737 211.32245998 958.25122842 210.09657562 958.25327981 C208.75930217 958.25042622 207.42202891 958.24748061 206.08475584 958.24445301 C204.67733566 958.24488859 203.26991556 958.24576325 201.8624959 958.24704218 C197.97680832 958.24928978 194.09114804 958.24526226 190.20546395 958.24026412 C186.02207501 958.23596358 181.83868774 958.23740576 177.65529722 958.23816639 C170.40124418 958.23869188 163.1472001 958.23554249 155.89314932 958.22992855 C145.40488515 958.2218169 134.91662534 958.21919868 124.42835838 958.21794056 C107.41368034 958.21574951 90.39900709 958.209088 73.38433164 958.19963795 C56.8517798 958.1904652 40.31922926 958.1833837 23.78667539 958.17913014 C22.76837263 958.17886741 21.75006986 958.17860469 20.70090943 958.17833401 C15.59261177 958.17702901 10.48431411 958.17576529 5.37601644 958.1745221 C-37.03242933 958.16414784 -79.44086989 958.1465281 -121.84931093 958.1241985 C-121.33859604 953.08237383 -120.75136038 948.12637802 -119.69589907 943.1639629 C-119.34858201 941.51535047 -119.34858201 941.51535047 -118.99424845 939.83343273 C-118.61433788 938.06286227 -118.61433788 938.06286227 -118.22675234 936.25652272 C-117.95728981 934.98372771 -117.68782728 933.7109327 -117.41019922 932.39956814 C-116.66829479 928.89576305 -115.92100963 925.39312489 -115.17278582 921.89066464 C-114.37023045 918.12921466 -113.57272114 914.36669471 -112.7746039 910.60430104 C-111.39944481 904.12503848 -110.02113107 897.64645367 -108.64063174 891.16832691 C-106.6418336 881.78872457 -104.64796284 872.40808006 -102.65528089 863.02717668 C-99.31334254 847.29500861 -95.96706148 831.56376742 -92.61845189 815.83301812 C-90.07007048 803.86141542 -87.52300405 791.88953458 -84.97821718 779.91716725 C-84.82519994 779.1972736 -84.6721827 778.47737995 -84.51452857 777.73567134 C-83.60808236 773.47106303 -82.70171094 769.20643883 -81.79537159 764.94180781 C-80.47146239 758.71238786 -79.14747277 752.48298501 -77.82343203 746.25359303 C-77.68140754 745.58538037 -77.53938305 744.91716771 -77.39305478 744.22870618 C-75.40011759 734.85228514 -73.40574003 725.47617128 -71.41034609 716.10027272 C-62.19214252 672.78151934 -53.01954131 629.45312853 -43.84931093 586.1241985 C-73.0818624 586.10139489 -102.31441324 586.08369346 -131.54697178 586.07313317 C-134.99670985 586.07188243 -138.4464479 586.07058811 -141.89618593 586.06926686 C-142.58297809 586.06900455 -143.26977025 586.06874223 -143.97737429 586.06847198 C-155.10356679 586.0641185 -166.22975414 586.05623271 -177.35594359 586.0470457 C-188.76908823 586.03770021 -200.18222869 586.03221585 -211.59537727 586.03011 C-218.00736614 586.02880403 -224.41934332 586.02572531 -230.83132845 586.01846844 C-236.86240608 586.01169776 -242.89346714 586.00958369 -248.92454821 586.01109082 C-251.14174781 586.01081496 -253.35894795 586.00881604 -255.57614428 586.00499302 C-258.59631789 586.00003946 -261.61642843 586.00120643 -264.63660342 586.00394398 C-265.51987016 586.00103114 -266.4031369 585.9981183 -267.3131693 585.99511719 C-268.52688707 585.99810376 -268.52688707 585.99810376 -269.76512438 586.00115067 C-270.46229091 586.00077095 -271.15945743 586.00039123 -271.87775022 586 C-273.97019033 586.1318133 -275.83507158 586.55584439 -277.84931093 587.1241985 C-281.09346777 598.67600045 -283.6814622 610.30618542 -286.12274843 622.04997975 C-286.52731107 623.98061055 -286.93225866 625.91116073 -287.33756167 627.84163624 C-288.19457457 631.92719661 -289.04914922 636.01325575 -289.9016791 640.09975392 C-291.23275564 646.47991873 -292.5692535 652.85893958 -293.90692812 659.23772389 C-294.35700908 661.38419139 -294.80708232 663.5306605 -295.25714785 665.67713124 C-295.479919 666.73955855 -295.70269015 667.80198586 -295.93221194 668.89660794 C-296.60726332 672.11705335 -297.28177024 675.33761235 -297.95612246 678.55820423 C-301.8225237 697.02053155 -305.72479293 715.47512475 -309.64552218 733.92598301 C-310.24789528 736.7609972 -310.84990199 739.59608914 -311.45192057 742.43117863 C-312.91668774 749.32907091 -314.38244814 756.22675157 -315.84931093 763.1241985 C-314.69664736 763.28057789 -313.54398379 763.43695729 -312.35639101 763.59807545 C-296.71959884 765.7574291 -281.15818896 768.3458326 -265.59363467 770.96581227 C-262.113416 771.55106403 -258.63270716 772.13338627 -255.15204531 772.71599537 C-248.38399966 773.84928493 -241.61647895 774.98568032 -234.84931093 776.1241985 C-236.46073874 786.70682628 -238.67712171 797.14820613 -240.89227968 807.616386 C-241.29741762 809.53990855 -241.70235552 811.46347325 -242.10710818 813.38707691 C-243.1898305 818.52903853 -244.27589069 823.67028927 -245.3629294 828.81133991 C-246.03767576 832.00328962 -246.71165588 835.19540016 -247.38538271 838.3875652 C-250.32088101 852.29544557 -253.26363331 866.2017807 -256.21018893 880.10732228 C-256.82872446 883.02702326 -257.44685943 885.9468087 -258.06482607 888.86663014 C-260.20638867 898.98464876 -262.3528021 909.10161018 -264.50888735 919.21654469 C-265.15066242 922.22767624 -265.79052423 925.23920441 -266.42874819 928.25109059 C-267.3059351 932.38959948 -268.19042632 936.52651153 -269.07587343 940.663261 C-269.33017626 941.8670641 -269.58447909 943.0708672 -269.84648806 944.31114918 C-270.08283465 945.40912831 -270.31918123 946.50710743 -270.56268984 947.63835865 C-270.86525194 949.0572086 -270.86525194 949.0572086 -271.17392641 950.50472218 C-271.84931093 953.1241985 -271.84931093 953.1241985 -273.84931093 958.1241985 C-414.09931093 958.1241985 -554.34931093 958.1241985 -698.84931093 958.1241985 C-698.20524808 951.68356992 -697.49025558 945.66236185 -696.13788515 939.39495045 C-695.9664732 938.57959387 -695.79506125 937.76423729 -695.61845499 936.92417294 C-695.0519845 934.2358543 -694.47801302 931.54919675 -693.90399843 928.86247975 C-693.49715735 926.93891861 -693.09079673 925.01525579 -692.68488222 923.09149891 C-691.59614305 917.93807722 -690.50094806 912.78604801 -689.40435702 907.63429219 C-688.26749133 902.28872127 -687.13599864 896.94201354 -686.00409609 891.5953899 C-684.62754314 885.09479851 -683.25035623 878.59434397 -681.87039858 872.09447438 C-679.16109528 859.33174472 -676.46732463 846.56590617 -673.794406 833.79550701 C-672.75770703 828.84398603 -671.71859877 823.89296996 -670.67968088 818.94191414 C-669.87445808 815.10349233 -669.07069953 811.26477553 -668.27014834 807.42537647 C-667.5286185 803.86953963 -666.78287122 800.31461379 -666.03383547 796.76035076 C-665.63680346 794.87077733 -665.24437607 792.9802382 -664.85211855 791.08966786 C-664.615777 789.97168308 -664.37943545 788.85369831 -664.13593203 787.70183522 C-663.93422396 786.73817036 -663.73251589 785.7745055 -663.52469546 784.78163868 C-661.75047913 777.80061735 -661.75047913 777.80061735 -659.20870119 775.89275318 C-655.892497 774.81252313 -652.54127072 774.30838747 -649.09906679 773.8273235 C-648.32301592 773.71320118 -647.54696505 773.59907887 -646.74739748 773.4814983 C-645.06617803 773.23513506 -643.38449398 772.99192612 -641.70241266 772.75151783 C-639.04127597 772.37092642 -636.38154078 771.98164337 -633.72200686 771.59001881 C-627.11846627 770.61939575 -620.51286601 769.66311458 -613.90711123 768.70769459 C-608.32130228 767.89939252 -602.73644219 767.08505591 -597.15274912 766.26226002 C-594.53063053 765.87843992 -591.90732003 765.50364762 -589.28386599 765.12908131 C-587.67923027 764.89353627 -586.07465819 764.65755719 -584.47016054 764.4210735 C-583.73917147 764.31919728 -583.00818239 764.21732105 -582.25504214 764.11235768 C-578.79631285 763.59299453 -576.812663 763.09976654 -573.84931093 761.1241985 C-572.84167096 758.23768024 -572.84167096 758.23768024 -572.15790468 754.72600514 C-572.01205935 754.06056879 -571.86621401 753.39513245 -571.71594912 752.70953137 C-571.22762294 750.4660389 -570.75724859 748.21916114 -570.28681093 745.97185475 C-569.93985701 744.35821203 -569.59193169 742.74477791 -569.24310976 741.13153797 C-568.29362562 736.72192103 -567.36081537 732.30893527 -566.43256289 727.89480549 C-565.85072992 725.13093908 -565.26560114 722.36779103 -564.67938906 719.60485035 C-562.15902084 707.72182142 -559.66620031 695.83313601 -557.18274599 683.94234425 C-555.82155803 677.42593171 -554.45538629 670.91057 -553.08808047 664.39543873 C-552.85783993 663.29830461 -552.62759939 662.20117049 -552.39038187 661.07078987 C-551.9245821 658.85130105 -551.45876241 656.6318164 -550.99292284 654.41233593 C-549.83697607 648.90457523 -548.68145592 643.39672506 -547.52606875 637.88884693 C-547.30110909 636.8164939 -547.07614943 635.74414088 -546.84437281 634.6392923 C-545.55229522 628.47911688 -544.26190806 622.31859045 -542.97293383 616.15776497 C-541.08322989 607.12579564 -539.1882219 598.09498355 -537.28079516 589.06673867 C-536.42032276 584.99305607 -535.56306808 580.918762 -534.71405703 576.84267384 C-533.93103126 573.083564 -533.13949608 569.32635288 -532.341075 565.57048374 C-532.05429992 564.21403313 -531.7706709 562.85691277 -531.49051195 561.49908024 C-531.11074538 559.66081292 -530.71838054 557.82516169 -530.32538515 555.98967701 C-530.11114901 554.97003361 -529.89691286 553.95039021 -529.67618471 552.89984852 C-528.78331357 549.90265852 -527.68081895 547.65678679 -525.84931093 545.1241985 C-523.13568789 544.36052662 -523.13568789 544.36052662 -519.83759218 544.1554485 C-518.61725283 544.06247486 -517.39691347 543.96950123 -516.13959414 543.87371022 C-514.82692568 543.79137135 -513.51425722 543.70903248 -512.16181093 543.6241985 C-509.41010956 543.40558404 -506.66091124 543.16229631 -503.91181093 542.913261 C-503.22246966 542.85171833 -502.53312838 542.79017567 -501.82289797 542.72676808 C-457.20198578 538.57916845 -414.65226321 517.78159158 -382.17743593 487.29997975 C-380.1803374 485.43356383 -378.13908767 483.68123486 -376.03681093 481.9366985 C-352.74825208 461.54732758 -335.26220336 434.21551762 -320.84931093 407.1241985 C-320.12782082 405.78763085 -319.40520096 404.45167231 -318.68134218 403.116386 C-317.06083885 400.12420449 -315.45119309 397.12640148 -313.84931093 394.1241985 C-306.61745792 394.55971421 -299.52014244 395.15812551 -292.34931093 396.1866985 C-259.52740128 400.37672952 -226.94493154 395.7705205 -197.68524843 380.116386 C-197.11109603 379.82175811 -196.53694363 379.52713022 -195.94539267 379.22357422 C-194.51287064 378.4722295 -193.10093756 377.6806314 -191.70939833 376.85585457 C-182.91405388 372.13466634 -174.30137228 372.45102181 -164.61810976 372.55657154 C-162.79385072 372.55798411 -160.96958884 372.55718596 -159.14533144 372.55435902 C-154.22233325 372.55293161 -149.29995123 372.58221156 -144.37709552 372.61722881 C-139.22151921 372.64860537 -134.06592686 372.65143193 -128.9102698 372.65735584 C-119.16048494 372.67286117 -109.4109823 372.7138447 -99.6613214 372.76410329 C-88.55611803 372.82010001 -77.45090078 372.8475092 -66.34559125 372.87258047 C-43.51334169 372.92476357 -20.68134217 373.01264125 2.15068907 373.1241985 C2.31863037 372.05965317 2.31863037 372.05965317 2.48996443 370.97360188 C3.75661108 363.14076765 5.29028679 355.38932212 6.94463438 347.63005787 C7.2211261 346.32402862 7.49738974 345.01795108 7.77344602 343.71182972 C8.51724942 340.19581365 9.26422817 336.68047927 10.01183122 333.16526943 C10.80229092 329.44587446 11.58980829 325.72585649 12.37767881 322.00591236 C13.70413012 315.74501339 15.0324436 309.48451204 16.36211485 303.22429615 C18.21579531 294.4969907 20.06623804 285.76900128 21.91595024 277.04085404 C27.63369695 250.06279816 33.36090068 223.08690351 39.15068907 196.1241985 C28.92474639 194.12141542 18.66924537 192.35663282 8.38506407 190.678886 C7.72297437 190.57084896 7.06088468 190.46281193 6.37873167 190.35150105 C1.55314008 189.56479301 -3.27304318 188.78174584 -8.09931093 187.9991985 C-12.96973326 187.20924945 -17.83994243 186.41802009 -22.7097159 185.62408024 C-24.64161894 185.30971426 -26.57386179 184.99743889 -28.50611025 184.68520314 C-29.67543093 184.49475422 -30.84475161 184.30430531 -32.04950625 184.10808522 C-33.07602297 183.94170552 -34.10253969 183.77532582 -35.16016299 183.60390431 C-37.42780887 183.19938848 -39.62032093 182.69609114 -41.84931093 182.1241985 C-38.58537158 164.81665635 -35.10520264 147.56697171 -31.42743593 130.3429485 C-30.91784525 127.94728224 -30.40847162 125.5515698 -29.89929873 123.15581471 C-28.5701498 116.90490644 -27.23795333 110.65465163 -25.90509707 104.40453297 C-24.57721523 98.17479375 -23.25250496 91.94438024 -21.92743593 85.71404225 C-19.62809347 74.90459764 -17.32355266 64.09627061 -15.01618868 53.28853565 C-13.59702482 46.63833023 -12.18336846 39.98698958 -10.77537066 33.3344112 C-9.93107036 29.34713315 -9.08398432 25.36045017 -8.23635775 21.37387806 C-7.84603521 19.53465181 -7.45702122 17.69514731 -7.06938082 15.85535389 C-6.54463869 13.36546377 -6.01541582 10.87656829 -5.48505312 8.38787037 C-5.33228663 7.65709782 -5.17952013 6.92632527 -5.02212435 6.17340809 C-3.73258333 0.16269942 -3.73258333 0.16269942 0 0 Z " fill="#F56423" transform="translate(1452.8493109345436,570.8758015036583)"/>
<path d="M0 0 C0.67869141 0.23605957 1.35738281 0.47211914 2.05664062 0.71533203 C23.27161439 8.42489724 39.42283382 23.01635752 49.5703125 43.109375 C50.86513182 46.04016365 51.97610592 48.96445521 53 52 C53.31839844 52.93328125 53.63679688 53.8665625 53.96484375 54.828125 C60.28368393 77.0751015 54.11403134 99.53741998 48.37109375 121.15625 C48.1095752 122.14302734 47.84805664 123.12980469 47.57861328 124.14648438 C47.09630006 125.94293975 46.60275581 127.73645414 46.09326172 129.52539062 C41.36035469 146.71070504 40.56287992 163.70126145 40.5 181.4375 C40.43438897 199.91271072 40.02427864 218.36877516 34.3125 236.125 C34.05686279 236.94081543 33.80122559 237.75663086 33.5378418 238.59716797 C25.55176872 263.24330825 11.88653244 284.61493719 -5.703125 303.515625 C-7.6795795 305.65342273 -9.56554656 307.833984 -11.4375 310.0625 C-38.24099512 340.6507479 -77.48926503 357.65143972 -117.52734375 360.72265625 C-148.82070097 362.77737008 -179.17304089 355.43165436 -203.4609375 334.921875 C-207.63711304 331.25948762 -211.58860502 327.42059375 -215.46411133 323.44628906 C-220.89512108 317.89010105 -226.31746295 313.05969828 -233 309 C-233.65226563 308.60296875 -234.30453125 308.2059375 -234.9765625 307.796875 C-250.94304926 298.99231028 -269.02815324 302.11867225 -286.3125 303.9375 C-305.12964732 305.89179295 -323.76063686 307.23697029 -342.6875 307.25 C-344.02553177 307.25101212 -344.02553177 307.25101212 -345.39059448 307.25204468 C-383.90561563 307.20614495 -429.77487636 304.22168592 -459 276 C-470.41661398 262.74670955 -474.58772991 246.61140141 -474.4375 229.4375 C-474.42992676 228.21385742 -474.42235352 226.99021484 -474.41455078 225.72949219 C-474.22914429 215.42522221 -472.98975164 205.85816192 -470 196 C-469.79101074 195.3105127 -469.58202148 194.62102539 -469.36669922 193.91064453 C-455.59032983 150.31127323 -416.82214775 119.61105163 -377.9375 98.9375 C-344.86734258 81.76362182 -309.68337581 74.7351383 -273.3671875 68.28515625 C-224.34012076 59.5517519 -180.66503072 43.89406157 -135.3190918 23.44848633 C-94.53145067 5.05855806 -45.27768898 -15.81540139 0 0 Z " fill="#F56423" transform="translate(1065,707)"/>
<path d="M0 0 C1.22460938 0.00451172 2.44921875 0.00902344 3.7109375 0.01367188 C6.68234644 0.02527894 9.65364443 0.04160213 12.625 0.0625 C10.26168871 2.72522219 7.88521991 4.07740603 4.6796875 5.59375 C3.69323242 6.06901123 2.70677734 6.54427246 1.69042969 7.03393555 C0.63758789 7.53836182 -0.41525391 8.04278809 -1.5 8.5625 C-11.9978935 13.70402134 -21.81813206 19.34075833 -31.375 26.0625 C-31.93074707 26.45002441 -32.48649414 26.83754883 -33.05908203 27.23681641 C-70.56474017 53.62460333 -84.98818849 88.15334086 -94.47680664 131.53735352 C-99.74895186 155.50850445 -106.54009699 178.53487365 -123.375 197.0625 C-123.92542969 197.69414063 -124.47585938 198.32578125 -125.04296875 198.9765625 C-137.90076425 212.88203022 -156.28217737 220.78148331 -174.375 225.0625 C-175.06029785 225.22766113 -175.7455957 225.39282227 -176.45166016 225.56298828 C-187.5507669 228.09730616 -198.72727022 228.36914061 -210.0625 228.4375 C-210.75134277 228.44544586 -211.44018555 228.45339172 -212.14990234 228.46157837 C-235.04458536 228.66443661 -257.52607307 223.31243214 -274.6875 207.375 C-284.67553058 196.95823043 -288.81061533 183.10750063 -288.58984375 168.85546875 C-285.79816565 132.56365346 -265.14795878 101.27784257 -238.42578125 77.6171875 C-174.88032854 24.40499022 -82.17496351 -0.5882569 0 0 Z " fill="#F56423" transform="translate(1172.375,431.9375)"/>
<path d="M0 0 C-3.61051522 4.29358567 -7.33785989 8.41871966 -11.1875 12.5 C-23.64439936 25.93758971 -33.50514404 41.39940759 -41.4375 57.875 C-41.7677417 58.55224121 -42.0979834 59.22948242 -42.43823242 59.92724609 C-45.71380097 66.95844559 -47.28460217 73.97580377 -47.3125 81.75 C-47.33763672 83.35101562 -47.33763672 83.35101562 -47.36328125 84.984375 C-46.73004814 96.0365018 -42.54854006 106.39819451 -38.5 116.5625 C-29.79896043 138.4766567 -24.85003531 159.76608334 -34.3671875 182.2265625 C-45.74596293 203.68206444 -69.63542269 217.52879408 -92 224.75 C-117.04534796 232.34128957 -145.58038342 230.93058642 -169.28515625 219.40234375 C-185.24987039 210.54202832 -195.77806176 197.53229064 -201 180 C-208.09214711 154.2749899 -200.39788336 126.38459264 -187.6484375 103.71484375 C-182.34762937 94.70931837 -176.097636 86.64962325 -169 79 C-168.47954102 78.43571289 -167.95908203 77.87142578 -167.42285156 77.29003906 C-128.91032964 36.0151127 -73.1844634 15.60771218 -19.5 2.9375 C-17.60338623 2.48842285 -17.60338623 2.48842285 -15.66845703 2.03027344 C-14.48880371 1.76118164 -13.30915039 1.49208984 -12.09375 1.21484375 C-11.05927734 0.97886475 -10.02480469 0.74288574 -8.95898438 0.49975586 C-5.91652829 -0.0140979 -3.07948549 -0.08927293 0 0 Z " fill="#F56423" transform="translate(855,528)"/>
<path d="M0 0 C-1 3 -1 3 -4.17578125 4.796875 C-5.55084444 5.45599481 -6.93005154 6.10651421 -8.3125 6.75 C-9.78513601 7.4648131 -11.25648273 8.18228815 -12.7265625 8.90234375 C-13.81952637 9.43577393 -13.81952637 9.43577393 -14.93457031 9.97998047 C-25.1980392 15.04862976 -33.5556259 21.38640664 -42 29 C-42.66773438 29.58394531 -43.33546875 30.16789063 -44.0234375 30.76953125 C-65.30187884 50.49954141 -72.7421486 79.47875606 -77 107 C-80.973196 132.43988804 -80.973196 132.43988804 -86 144 C-86.39058594 144.9075 -86.78117187 145.815 -87.18359375 146.75 C-90.01025406 152.82963661 -93.73496772 157.85715347 -98 163 C-98.62003906 163.82113281 -99.24007813 164.64226562 -99.87890625 165.48828125 C-113.28175899 181.35943099 -135.82989875 188.151307 -155.79345703 189.85498047 C-176.86836243 191.24007604 -198.94527704 190.0375932 -216 176 C-225.67635911 166.72035436 -229.93992335 157.1604633 -230.3125 143.8125 C-229.72337378 113.94033527 -212.33950053 88.25972409 -191.53515625 68.25 C-186.33913172 63.39300082 -180.80854809 59.09499267 -175 55 C-174.42701172 54.59330078 -173.85402344 54.18660156 -173.26367188 53.76757812 C-124.80454 19.67064779 -59.30274888 -1.14043748 0 0 Z " fill="#F56423" transform="translate(1348,523)"/>
<path d="M0 0 C0 1.32 0 2.64 0 4 C-1.02738281 4.49628906 -2.05476563 4.99257813 -3.11328125 5.50390625 C-15.40900692 11.50443468 -26.5111802 18.14018866 -37 27 C-37.82371094 27.67675781 -38.64742187 28.35351562 -39.49609375 29.05078125 C-62.75486856 48.89875289 -70.93004726 75.95763106 -74.671875 105.2109375 C-77.63658505 128.06722121 -83.11368448 147.4934367 -100 164 C-100.56074219 164.59296875 -101.12148437 165.1859375 -101.69921875 165.796875 C-111.5973714 175.46121302 -126.90116966 179.82298149 -140 183 C-140.97839844 183.24621094 -141.95679688 183.49242187 -142.96484375 183.74609375 C-164.10007631 188.14294988 -188.00760929 185.52873276 -206.3125 173.8125 C-214.40166599 167.80080842 -220.06098205 158.90161236 -222 149 C-223.19932185 137.09863325 -222.24376524 126.21072836 -218 115 C-217.61457031 113.96488281 -217.22914062 112.92976562 -216.83203125 111.86328125 C-200.56022863 70.73616848 -162.19294626 44.32778596 -123.125 26.9375 C-91.03896844 13.12080685 -57.51769422 6.72688394 -23.09283447 2.27124023 C-21.65964415 2.08549268 -20.2266698 1.89807318 -18.79388428 1.70922852 C-16.61693084 1.42247783 -14.4394358 1.14026141 -12.26171875 0.859375 C-10.34879028 0.6113916 -10.34879028 0.6113916 -8.3972168 0.35839844 C-5.5582008 0.05888888 -2.84955142 -0.0748003 0 0 Z " fill="#F56423" transform="translate(1356,736)"/>
</svg>
